<svg xmlns="http://www.w3.org/2000/svg" version="1.1" xmlns:xlink="http://www.w3.org/1999/xlink" width="16" height="16"
    x="0" y="0" viewBox="0 0 64 64" style="enable-background:new 0 0 512 512" xml:space="preserve" class="">
    <g>
        <path
            d="M55.3 62H41.7C38 62 35 59 35 55.3V37c0-1.1.9-2 2-2h18.3c3.7 0 6.7 3 6.7 6.7v13.6c0 3.7-3 6.7-6.7 6.7zM39 39v16.3c0 1.5 1.2 2.7 2.7 2.7h13.6c1.5 0 2.7-1.2 2.7-2.7V41.7c0-1.5-1.2-2.7-2.7-2.7zM22.3 62H8.7C5 62 2 59 2 55.3V41.7C2 38 5 35 8.7 35H27c1.1 0 2 .9 2 2v18.3c0 3.7-3 6.7-6.7 6.7zM8.7 39C7.2 39 6 40.2 6 41.7v13.6C6 56.8 7.2 58 8.7 58h13.6c1.5 0 2.7-1.2 2.7-2.7V39zM55.3 29H37c-1.1 0-2-.9-2-2V8.7C35 5 38 2 41.7 2h13.6C59 2 62 5 62 8.7v13.6c0 3.7-3 6.7-6.7 6.7zM39 25h16.3c1.5 0 2.7-1.2 2.7-2.7V8.7C58 7.2 56.8 6 55.3 6H41.7C40.2 6 39 7.2 39 8.7zM27 29H8.7C5 29 2 26 2 22.3V8.7C2 5 5 2 8.7 2h13.6C26 2 29 5 29 8.7V27c0 1.1-.9 2-2 2zM8.7 6C7.2 6 6 7.2 6 8.7v13.6C6 23.8 7.2 25 8.7 25H25V8.7C25 7.2 23.8 6 22.3 6z"
            fill="#ffffff" opacity="1" data-original="#000000" class=""></path>
    </g>
</svg>