<svg xmlns="http://www.w3.org/2000/svg" version="1.1" xmlns:xlink="http://www.w3.org/1999/xlink" width="16" height="16"
    x="0" y="0" viewBox="0 0 12 12" style="enable-background:new 0 0 512 512" xml:space="preserve" class="">
    <g>
        <path
            d="M2.734 6.265a.375.375 0 0 0 .532-.53l-1.86-1.86H11.5a.375.375 0 0 0 0-.75H1.405l1.86-1.86a.376.376 0 0 0-.531-.53l-2.5 2.5a.377.377 0 0 0 0 .53zM9.266 5.735a.376.376 0 0 0-.532.53l1.86 1.86H.5a.375.375 0 0 0 0 .75h10.095l-1.86 1.86a.377.377 0 0 0 .265.64.375.375 0 0 0 .266-.11l2.5-2.5a.377.377 0 0 0 0-.53z"
            fill="#ffffff" opacity="1" data-original="#000000" class=""></path>
    </g>
</svg>